<svg width="29" height="29" viewBox="0 0 29 29" fill="none" xmlns="http://www.w3.org/2000/svg">
<rect width="29" height="29" fill="#F5F5F5"/>
<rect width="29" height="29" fill="#000080"/>
<path d="M20.5417 3.625H8.45833C6.04167 3.625 4.83333 4.83333 4.83333 7.25V22.5004C4.83333 23.496 5.97034 24.0639 6.76664 23.467L8.40877 22.2358C9.13015 21.6944 10.1404 21.7669 10.7784 22.4037L13.2179 24.8433C13.926 25.5514 15.074 25.5514 15.7809 24.8433L18.2204 22.4037C18.8584 21.7657 19.8687 21.6944 20.59 22.2358L22.2322 23.467C23.0285 24.0639 24.1655 23.496 24.1655 22.5004V7.25C24.1667 4.83333 22.9583 3.625 20.5417 3.625ZM15.7083 16.6146H9.66667C9.16642 16.6146 8.76042 16.2086 8.76042 15.7083C8.76042 15.2081 9.16642 14.8021 9.66667 14.8021H15.7083C16.2086 14.8021 16.6146 15.2081 16.6146 15.7083C16.6146 16.2086 16.2086 16.6146 15.7083 16.6146ZM19.3333 11.7812H9.66667C9.16642 11.7812 8.76042 11.3752 8.76042 10.875C8.76042 10.3747 9.16642 9.96875 9.66667 9.96875H19.3333C19.8336 9.96875 20.2396 10.3747 20.2396 10.875C20.2396 11.3752 19.8336 11.7812 19.3333 11.7812Z" fill="white"/>
</svg>
