<svg width="188" height="22" viewBox="0 0 188 22" fill="none" xmlns="http://www.w3.org/2000/svg">
<rect width="188" height="22" fill="#001060"/>
<path d="M33.8467 21.375V1.775H40.8467C41.9107 1.775 42.872 2.041 43.7307 2.573C44.5987 3.105 45.2847 3.819 45.7887 4.715C46.2927 5.611 46.5447 6.59567 46.5447 7.669C46.5447 8.77033 46.2833 9.769 45.7607 10.665C45.2473 11.5517 44.5567 12.261 43.6887 12.793C42.8207 13.3157 41.8733 13.577 40.8467 13.577H37.2627V21.375H33.8467ZM37.2627 10.161H40.4827C40.968 10.161 41.4113 10.0397 41.8127 9.797C42.214 9.55433 42.5313 9.22767 42.7647 8.817C43.0073 8.40633 43.1287 7.949 43.1287 7.445C43.1287 6.93167 43.0073 6.46967 42.7647 6.059C42.5313 5.64833 42.214 5.32167 41.8127 5.079C41.4113 4.83633 40.968 4.715 40.4827 4.715H37.2627V10.161Z" fill="white"/>
<path d="M54.3074 21.739C53.0195 21.739 51.8434 21.4077 50.7794 20.745C49.7248 20.0823 48.8801 19.1957 48.2454 18.085C47.6201 16.965 47.3074 15.7283 47.3074 14.375C47.3074 13.3483 47.4894 12.3917 47.8534 11.505C48.2174 10.609 48.7168 9.825 49.3514 9.153C49.9954 8.47167 50.7421 7.93967 51.5914 7.557C52.4408 7.17433 53.3461 6.983 54.3074 6.983C55.5955 6.983 56.7668 7.31433 57.8214 7.977C58.8854 8.63967 59.7301 9.531 60.3554 10.651C60.9901 11.771 61.3074 13.0123 61.3074 14.375C61.3074 15.3923 61.1255 16.3443 60.7614 17.231C60.3974 18.1177 59.8934 18.9017 59.2494 19.583C58.6148 20.255 57.8728 20.7823 57.0234 21.165C56.1834 21.5477 55.2781 21.739 54.3074 21.739ZM54.3074 18.323C54.9888 18.323 55.6001 18.141 56.1414 17.777C56.6828 17.413 57.1074 16.9323 57.4154 16.335C57.7328 15.7377 57.8914 15.0843 57.8914 14.375C57.8914 13.647 57.7281 12.9843 57.4014 12.387C57.0841 11.7803 56.6501 11.2997 56.0994 10.945C55.5581 10.581 54.9608 10.399 54.3074 10.399C53.6354 10.399 53.0288 10.581 52.4874 10.945C51.9461 11.309 51.5168 11.7943 51.1994 12.401C50.8821 13.0077 50.7234 13.6657 50.7234 14.375C50.7234 15.1123 50.8868 15.7797 51.2134 16.377C51.5401 16.9743 51.9741 17.4503 52.5154 17.805C53.0661 18.1503 53.6634 18.323 54.3074 18.323Z" fill="white"/>
<path d="M72.222 17.161L75.302 18.827C74.658 19.7043 73.8506 20.409 72.88 20.941C71.9093 21.473 70.85 21.739 69.702 21.739C68.414 21.739 67.238 21.4077 66.174 20.745C65.1193 20.0823 64.2747 19.1957 63.64 18.085C63.0146 16.965 62.702 15.7283 62.702 14.375C62.702 13.3483 62.884 12.3917 63.248 11.505C63.612 10.609 64.1113 9.825 64.746 9.153C65.39 8.47167 66.1366 7.93967 66.986 7.557C67.8353 7.17433 68.7406 6.983 69.702 6.983C70.85 6.983 71.9093 7.249 72.88 7.781C73.8506 8.313 74.658 9.027 75.302 9.923L72.222 11.575C71.8953 11.2017 71.508 10.9123 71.06 10.707C70.6213 10.5017 70.1686 10.399 69.702 10.399C69.03 10.399 68.4233 10.5857 67.882 10.959C67.3406 11.323 66.9113 11.8083 66.594 12.415C66.2766 13.0123 66.118 13.6657 66.118 14.375C66.118 15.075 66.2766 15.7283 66.594 16.335C66.9113 16.9323 67.3406 17.413 67.882 17.777C68.4233 18.141 69.03 18.323 69.702 18.323C70.1873 18.323 70.6493 18.2203 71.088 18.015C71.5266 17.8003 71.9046 17.5157 72.222 17.161Z" fill="white"/>
<path d="M89.8799 21.375H85.9459L82.7539 15.873L80.7939 18.211V21.375H77.3779V0.374998H80.7939V12.905L85.4279 7.375H89.8939L85.0919 13.101L89.8799 21.375Z" fill="white"/>
<path d="M97.3465 21.739C96.0585 21.739 94.8825 21.4077 93.8185 20.745C92.7638 20.0823 91.9192 19.191 91.2845 18.071C90.6592 16.951 90.3465 15.7143 90.3465 14.361C90.3465 13.3437 90.5285 12.3917 90.8925 11.505C91.2565 10.609 91.7558 9.825 92.3905 9.153C93.0345 8.47167 93.7812 7.93967 94.6305 7.557C95.4798 7.17433 96.3852 6.983 97.3465 6.983C98.4385 6.983 99.4372 7.21633 100.343 7.683C101.257 8.14033 102.032 8.77033 102.667 9.573C103.301 10.3757 103.763 11.2903 104.053 12.317C104.342 13.3437 104.407 14.417 104.249 15.537H94.0145C94.1452 16.0597 94.3598 16.531 94.6585 16.951C94.9572 17.3617 95.3352 17.693 95.7925 17.945C96.2498 18.1877 96.7678 18.3137 97.3465 18.323C97.9438 18.3323 98.4852 18.1923 98.9705 17.903C99.4652 17.6043 99.8758 17.203 100.203 16.699L103.689 17.511C103.119 18.7523 102.27 19.7697 101.141 20.563C100.011 21.347 98.7465 21.739 97.3465 21.739ZM93.9025 12.975H100.791C100.688 12.415 100.469 11.911 100.133 11.463C99.8058 11.0057 99.3998 10.6417 98.9145 10.371C98.4292 10.1003 97.9065 9.965 97.3465 9.965C96.7865 9.965 96.2685 10.1003 95.7925 10.371C95.3165 10.6323 94.9105 10.9917 94.5745 11.449C94.2478 11.897 94.0238 12.4057 93.9025 12.975Z" fill="white"/>
<path d="M114.03 10.791H111.314V21.375H107.898V10.791H105.826V7.375H107.898V2.979H111.314V7.375H114.03V10.791Z" fill="white"/>
<path d="M123.288 21.375V1.775H130.288C131.352 1.775 132.313 2.041 133.172 2.573C134.04 3.105 134.726 3.819 135.23 4.715C135.734 5.611 135.986 6.59567 135.986 7.669C135.986 8.77033 135.725 9.769 135.202 10.665C134.689 11.5517 133.998 12.261 133.13 12.793C132.262 13.3157 131.315 13.577 130.288 13.577H126.704V21.375H123.288ZM126.704 10.161H129.924C130.409 10.161 130.853 10.0397 131.254 9.797C131.655 9.55433 131.973 9.22767 132.206 8.817C132.449 8.40633 132.57 7.949 132.57 7.445C132.57 6.93167 132.449 6.46967 132.206 6.059C131.973 5.64833 131.655 5.32167 131.254 5.079C130.853 4.83633 130.409 4.715 129.924 4.715H126.704V10.161Z" fill="white"/>
<path d="M138.177 21.375L138.163 7.375H141.579L141.593 8.621C142.069 8.117 142.638 7.72033 143.301 7.431C143.964 7.13233 144.678 6.983 145.443 6.983C145.956 6.983 146.47 7.05767 146.983 7.207L145.639 10.651C145.284 10.511 144.93 10.441 144.575 10.441C144.024 10.441 143.52 10.5763 143.063 10.847C142.615 11.1083 142.256 11.4677 141.985 11.925C141.724 12.373 141.593 12.8723 141.593 13.423V21.375H138.177Z" fill="white"/>
<path d="M154.057 21.739C152.769 21.739 151.593 21.4077 150.529 20.745C149.475 20.0823 148.63 19.1957 147.995 18.085C147.37 16.965 147.057 15.7283 147.057 14.375C147.057 13.3483 147.239 12.3917 147.603 11.505C147.967 10.609 148.467 9.825 149.101 9.153C149.745 8.47167 150.492 7.93967 151.341 7.557C152.191 7.17433 153.096 6.983 154.057 6.983C155.345 6.983 156.517 7.31433 157.571 7.977C158.635 8.63967 159.48 9.531 160.105 10.651C160.74 11.771 161.057 13.0123 161.057 14.375C161.057 15.3923 160.875 16.3443 160.511 17.231C160.147 18.1177 159.643 18.9017 158.999 19.583C158.365 20.255 157.623 20.7823 156.773 21.165C155.933 21.5477 155.028 21.739 154.057 21.739ZM154.057 18.323C154.739 18.323 155.35 18.141 155.891 17.777C156.433 17.413 156.857 16.9323 157.165 16.335C157.483 15.7377 157.641 15.0843 157.641 14.375C157.641 13.647 157.478 12.9843 157.151 12.387C156.834 11.7803 156.4 11.2997 155.849 10.945C155.308 10.581 154.711 10.399 154.057 10.399C153.385 10.399 152.779 10.581 152.237 10.945C151.696 11.309 151.267 11.7943 150.949 12.401C150.632 13.0077 150.473 13.6657 150.473 14.375C150.473 15.1123 150.637 15.7797 150.963 16.377C151.29 16.9743 151.724 17.4503 152.265 17.805C152.816 18.1503 153.413 18.323 154.057 18.323Z" fill="white"/>
<path d="M169.452 21.739C168.164 21.739 166.988 21.4077 165.924 20.745C164.869 20.0823 164.025 19.1957 163.39 18.085C162.765 16.965 162.452 15.7283 162.452 14.375C162.452 13.3483 162.634 12.3917 162.998 11.505C163.362 10.609 163.861 9.825 164.496 9.153C165.14 8.47167 165.887 7.93967 166.736 7.557C167.585 7.17433 168.491 6.983 169.452 6.983C170.74 6.983 171.911 7.31433 172.966 7.977C174.03 8.63967 174.875 9.531 175.5 10.651C176.135 11.771 176.452 13.0123 176.452 14.375C176.452 15.3923 176.27 16.3443 175.906 17.231C175.542 18.1177 175.038 18.9017 174.394 19.583C173.759 20.255 173.017 20.7823 172.168 21.165C171.328 21.5477 170.423 21.739 169.452 21.739ZM169.452 18.323C170.133 18.323 170.745 18.141 171.286 17.777C171.827 17.413 172.252 16.9323 172.56 16.335C172.877 15.7377 173.036 15.0843 173.036 14.375C173.036 13.647 172.873 12.9843 172.546 12.387C172.229 11.7803 171.795 11.2997 171.244 10.945C170.703 10.581 170.105 10.399 169.452 10.399C168.78 10.399 168.173 10.581 167.632 10.945C167.091 11.309 166.661 11.7943 166.344 12.401C166.027 13.0077 165.868 13.6657 165.868 14.375C165.868 15.1123 166.031 15.7797 166.358 16.377C166.685 16.9743 167.119 17.4503 167.66 17.805C168.211 18.1503 168.808 18.323 169.452 18.323Z" fill="white"/>
<path d="M182.922 4.435V7.375H186.744V10.791H182.922V21.375H179.506V10.791H177.98V7.375H179.506V4.435C179.506 3.63233 179.702 2.89967 180.094 2.237C180.495 1.565 181.032 1.033 181.704 0.640999C182.376 0.239666 183.118 0.0389993 183.93 0.0389993C184.518 0.0389993 185.101 0.160333 185.68 0.403C186.259 0.645665 186.772 1.019 187.22 1.523L184.756 3.931C184.672 3.77233 184.551 3.65567 184.392 3.581C184.243 3.497 184.089 3.455 183.93 3.455C183.659 3.455 183.421 3.553 183.216 3.749C183.02 3.93567 182.922 4.16433 182.922 4.435Z" fill="white"/>
<path d="M15.7083 0H3.625C1.20833 0 0 1.20833 0 3.625V18.8754C0 19.871 1.13701 20.4389 1.9333 19.842L3.57544 18.6108C4.29681 18.0694 5.30705 18.1419 5.94505 18.7787L8.38458 21.2183C9.09266 21.9264 10.2407 21.9264 10.9476 21.2183L13.3871 18.7787C14.0251 18.1407 15.0353 18.0694 15.7567 18.6108L17.3988 19.842C18.1951 20.4389 19.3322 19.871 19.3322 18.8754V3.625C19.3334 1.20833 18.125 0 15.7083 0ZM10.875 12.9896H4.83333C4.33308 12.9896 3.92708 12.5836 3.92708 12.0833C3.92708 11.5831 4.33308 11.1771 4.83333 11.1771H10.875C11.3752 11.1771 11.7812 11.5831 11.7812 12.0833C11.7812 12.5836 11.3752 12.9896 10.875 12.9896ZM14.5 8.15625H4.83333C4.33308 8.15625 3.92708 7.75025 3.92708 7.25C3.92708 6.74975 4.33308 6.34375 4.83333 6.34375H14.5C15.0002 6.34375 15.4062 6.74975 15.4062 7.25C15.4062 7.75025 15.0002 8.15625 14.5 8.15625Z" fill="white"/>
</svg>
